<?xml version="1.0" encoding="UTF-8" standalone="no"?>
<!DOCTYPE svg PUBLIC "-//W3C//DTD SVG 1.1//EN"
"http://www.w3.org/Graphics/SVG/1.1/DTD/svg11.dtd">
<svg version="1.1" xmlns="http://www.w3.org/2000/svg" xmlns:xlink="http://www.w3.org/1999/xlink">
<defs>
<style type="text/css"><![CDATA[
.g2_1{
fill: none;
stroke: #000000;
stroke-width: 1;
stroke-linecap: butt;
stroke-linejoin: miter;
}
.g1_1{
fill: none;
stroke: #000000;
stroke-width: 2;
stroke-linecap: butt;
stroke-linejoin: miter;
}
]]></style>
</defs>
<path d="M27,1008l440,0l0,128l-440,0l0,-128Z" class="g1_1" />
<path d="M104.5,1127.5l0,9" class="g2_1" />
<path d="M467,1008l440,0l0,128l-440,0l0,-128Z" class="g1_1" />
<path d="M467,1136l385,0" class="g1_1" />
<path d="M467,1081l440,0" class="g1_1" />
<path d="M775,36l132,0l0,37L775,73l0,-37Z" class="g1_1" />
<path d="M27,385l880,0l0,605L27,990L27,385Z" class="g1_1" />
<path d="M55.5,806.5l0,55" class="g2_1" />
<path d="M649.5,806.5l0,55" class="g2_1" />
<path d="M269.5,806.5l0,55" class="g2_1" />
<path d="M27,861l880,0" class="g1_1" />
<path d="M269.5,458.5l0,128" class="g2_1" />
<path d="M506.5,439.5l0,422" class="g2_1" />
<path d="M55.5,458.5l0,128" class="g2_1" />
<path d="M27,586l880,0" class="g1_1" />
<path d="M55.5,458.5l22,0" class="g2_1" />
<path d="M55.5,476.5l44,0" class="g2_1" />
<path d="M176.5,476.5l22,0" class="g2_1" />
<path d="M55.5,494.5l44,0" class="g2_1" />
<path d="M176.5,494.5l22,0" class="g2_1" />
<path d="M55.5,513.5l22,0" class="g2_1" />
<path d="M82.5,513.5l182,0" class="g2_1" />
<path d="M55.5,531.5l22,0" class="g2_1" />
<path d="M82.5,531.5l182,0" class="g2_1" />
<path d="M55.5,549.5l22,0" class="g2_1" />
<path d="M121.5,549.5l22,0" class="g2_1" />
<path d="M187.5,549.5l22,0" class="g2_1" />
<path d="M55.5,568.5l22,0" class="g2_1" />
<path d="M121.5,568.5l22,0" class="g2_1" />
<path d="M187.5,568.5l22,0" class="g2_1" />
<path d="M77.5,458.5l0,73" class="g2_1" />
<path d="M77.5,549.5l0,37" class="g2_1" />
<path d="M121.5,549.5l0,19" class="g2_1" />
<path d="M143.5,549.5l0,19" class="g2_1" />
<path d="M187.5,549.5l0,19" class="g2_1" />
<path d="M209.5,549.5l0,19" class="g2_1" />
<path d="M99.5,476.5l0,18" class="g2_1" />
<path d="M176.5,476.5l0,18" class="g2_1" />
<path d="M198.5,476.5l0,18" class="g2_1" />
<path d="M55.5,458.5l0,128" class="g2_1" />
<path d="M786.5,476.5l0,18" class="g2_1" />
<path d="M649.5,476.5l0,18" class="g2_1" />
<path d="M649.5,494.5l258,0" class="g2_1" />
<path d="M649.5,586.5l258,0" class="g2_1" />
<path d="M786.5,568.5l0,18" class="g2_1" />
<path d="M649.5,568.5l0,18" class="g2_1" />
<path d="M649.5,476.5l258,0" class="g2_1" />
<path d="M649.5,458.5l0,18" class="g2_1" />
<path d="M786.5,458.5l0,18" class="g2_1" />
<path d="M649.5,494.5l0,19" class="g2_1" />
<path d="M649.5,513.5l258,0" class="g2_1" />
<path d="M786.5,494.5l0,19" class="g2_1" />
<path d="M649.5,531.5l258,0" class="g2_1" />
<path d="M649.5,513.5l0,18" class="g2_1" />
<path d="M786.5,513.5l0,18" class="g2_1" />
<path d="M649.5,549.5l258,0" class="g2_1" />
<path d="M649.5,531.5l0,18" class="g2_1" />
<path d="M786.5,531.5l0,18" class="g2_1" />
<path d="M649.5,568.5l258,0" class="g2_1" />
<path d="M649.5,549.5l0,19" class="g2_1" />
<path d="M786.5,549.5l0,19" class="g2_1" />
<path d="M176.5,696.5l22,0l0,19l-22,0l0,-19Z" class="g2_1" />
<path d="M269.5,678.5l0,73" class="g2_1" />
<path d="M27,733l880,0" class="g1_1" />
<path d="M55.5,696.5l22,0" class="g2_1" />
<path d="M55.5,715.5l22,0" class="g2_1" />
<path d="M77.5,678.5l0,37" class="g2_1" />
<path d="M55.5,678.5l0,73" class="g2_1" />
<path d="M786.5,715.5l0,18" class="g2_1" />
<path d="M649.5,715.5l0,18" class="g2_1" />
<path d="M649.5,733.5l258,0" class="g2_1" />
<path d="M786.5,696.5l0,19" class="g2_1" />
<path d="M649.5,696.5l0,19" class="g2_1" />
<path d="M649.5,715.5l258,0" class="g2_1" />
<path d="M649.5,696.5l258,0" class="g2_1" />
<path d="M649.5,678.5l0,18" class="g2_1" />
<path d="M786.5,678.5l0,18" class="g2_1" />
<path d="M55.5,715.5l22,0l0,18l-22,0l0,-18Z" class="g2_1" />
<path d="M77.5,715.5l192,0" class="g2_1" />
<path d="M176.5,678.5l22,0l0,18l-22,0l0,-18Z" class="g2_1" />
<path d="M27,458l880,0" class="g1_1" />
<path d="M55.5,439.5l0,19" class="g2_1" />
<path d="M649.5,439.5l0,19" class="g2_1" />
<path d="M269.5,439.5l0,19" class="g2_1" />
<path d="M748.5,733.5l0,18" class="g2_1" />
<path d="M726.5,733.5l0,18" class="g2_1" />
<path d="M671.5,733.5l0,18" class="g2_1" />
<path d="M649.5,788.5l258,0" class="g2_1" />
<path d="M649.5,770.5l258,0" class="g2_1" />
<path d="M649.5,751.5l258,0" class="g2_1" />
<path d="M27,806l880,0" class="g1_1" />
<path d="M649.5,733.5l0,73" class="g2_1" />
<path d="M786.5,733.5l0,73" class="g2_1" />
<path d="M55.5,733.5l0,73" class="g2_1" />
<path d="M269.5,733.5l0,73" class="g2_1" />
<path d="M244.5,760.5l22,0l0,19l-22,0l0,-19Z" class="g2_1" />
<path d="M55.5,586.5l0,147" class="g2_1" />
<path d="M269.5,586.5l0,147" class="g2_1" />
<path d="M27,678l880,0" class="g1_1" />
<path d="M55.5,586.5l0,92" class="g2_1" />
<path d="M55.5,604.5l22,0l0,19l-22,0l0,-19Z" class="g2_1" />
<path d="M55.5,623.5l22,0l0,18l-22,0l0,-18Z" class="g2_1" />
<path d="M159.5,623.5l22,0l0,18l-22,0l0,-18Z" class="g2_1" />
<path d="M55.5,641.5l22,0l0,19l-22,0l0,-19Z" class="g2_1" />
<path d="M159.5,641.5l22,0l0,19l-22,0l0,-19Z" class="g2_1" />
<path d="M55.5,660.5l22,0l0,18l-22,0l0,-18Z" class="g2_1" />
<path d="M159.5,660.5l22,0l0,18l-22,0l0,-18Z" class="g2_1" />
<path d="M649.5,678.5l258,0" class="g2_1" />
<path d="M649.5,586.5l0,37" class="g2_1" />
<path d="M786.5,586.5l0,92" class="g2_1" />
<path d="M649.5,641.5l258,0" class="g2_1" />
<path d="M649.5,623.5l258,0" class="g2_1" />
<path d="M649.5,604.5l258,0" class="g2_1" />
<path d="M649.5,678.5l258,0" class="g2_1" />
<path d="M649.5,678.5l258,0" class="g2_1" />
<path d="M27.5,439.5l880,0" class="g2_1" />
<path d="M324.5,439.5l0,422" class="g2_1" />
<path d="M297.5,439.5l0,422" class="g2_1" />
<path d="M577.5,439.5l0,422" class="g2_1" />
<path d="M649.5,660.5l258,0" class="g2_1" />
<path d="M649.5,586.5l0,92" class="g2_1" />
<path d="M110.5,715.5l22,0l0,18l-22,0l0,-18Z" class="g2_1" />
<path d="M27,73l880,0l0,110L27,183L27,73Z" class="g1_1" />
<path d="M27,137l880,0" class="g1_1" />
<path d="M27,183l880,0l0,183L27,366L27,183Z" class="g1_1" />
<path d="M467,183l0,183" class="g1_1" />
<path d="M467.5,201.5l0,19" class="g2_1" />
<path d="M467.5,220.5l275,0" class="g2_1" />
<path d="M467.5,183.5l440,0" class="g2_1" />
<path d="M27.5,183.5l0,183" class="g2_1" />
<path d="M467.5,220.5l440,0l0,18l-440,0l0,-18Z" class="g2_1" />
<path d="M467.5,220.5l440,0l0,18l-440,0l0,-18Z" class="g2_1" />
<path d="M467.5,275.5l440,0" class="g2_1" />
<path d="M467.5,293.5l440,0" class="g2_1" />
<path d="M467.5,201.5l440,0" class="g2_1" />
<path d="M467.5,311.5l440,0" class="g2_1" />
<path d="M467.5,330.5l440,0" class="g2_1" />
<path d="M467.5,348.5l440,0" class="g2_1" />
<path d="M27,183l880,0" class="g1_1" />
<path d="M907,183l0,183" class="g1_1" />
<path d="M907.5,366.5l-440,0" class="g2_1" />
<path d="M737.5,201.5l0,19" class="g2_1" />
<path d="M27.5,275.5l880,0" class="g2_1" />
<path d="M825.5,238.5l0,128" class="g2_1" />
<path d="M467.5,256.5l440,0" class="g2_1" />
</svg>
